<svg width="30" height="26" viewBox="0 0 30 26" fill="none" xmlns="http://www.w3.org/2000/svg">
<path d="M28.5509 13.8036C27.492 13.1799 26.314 12.9298 25.0929 12.87C19.3791 12.5848 6.86731 14.3613 5.0936 13.974C3.18593 13.5647 1.48928 11.2316 0.827518 11.2231C0.523449 11.2199 0.157688 11.9079 0.316051 12.1705C0.706406 12.8252 1.17247 13.426 2.48443 15.436C2.88564 16.0507 11.0018 16.3413 12.4797 16.4351C12.4275 16.5217 9.10055 25.6356 9.10055 25.6356C9.09563 25.961 11.1214 25.283 11.3424 25.0489C13.2384 23.1036 15.4469 17.9651 17.4751 16.3455C17.6327 16.2207 27.8199 15.8827 28.908 15.5691C30.6788 15.0597 29.4036 14.3011 28.5509 13.8036Z" fill="white"/>
<path d="M18.3218 2.30918C18.3295 1.75846 17.6882 -0.126134 17.5218 0.311234C17.5033 0.356164 14.2409 12.6449 14.2409 12.6449L17.3932 12.3514C17.3932 12.3514 18.3011 3.24961 18.3218 2.30918Z" fill="white"/>
</svg>
