<svg xmlns="http://www.w3.org/2000/svg" viewBox="0 0 690 670"><defs><style>.cls-1{fill:#fff;}.cls-2{fill:#ff4200;}</style></defs><g id="Calque_2" data-name="Calque 2"><g id="Calque_1-2" data-name="Calque 1"><rect width="690" height="670" rx="159.79"/><path class="cls-1" d="M90.18,376V233.5h90.06v16.72H107.8v44.63h60.56v16.73H107.8v47.7h72.44V376Z"/><path class="cls-1" d="M310,423.5V269.12H325.7V347.8h2v75.7ZM359.15,379q-15,0-25.33-7.47a46.28,46.28,0,0,1-15.59-20.24,81.15,81.15,0,0,1,0-57.64,45.42,45.42,0,0,1,15.64-20.09q10.33-7.38,25.38-7.37,14.85,0,25.58,7.37a47.37,47.37,0,0,1,16.48,20.14,75.22,75.22,0,0,1,0,57.64,47.72,47.72,0,0,1-16.48,20.24Q374.09,379,359.15,379ZM357,362.84q10.5,0,17.47-5.35A32,32,0,0,0,384.88,343a57.65,57.65,0,0,0,3.46-20.54,56.91,56.91,0,0,0-3.46-20.38,31.94,31.94,0,0,0-10.49-14.45q-7-5.34-17.91-5.34-10.39,0-17.22,5.09a30.27,30.27,0,0,0-10.19,14.2,59.85,59.85,0,0,0-3.37,20.88A60.9,60.9,0,0,0,329,343.29a30.22,30.22,0,0,0,10.24,14.35Q346.19,362.85,357,362.84Z"/><path class="cls-1" d="M459.2,379q-12,0-20-4.41A30.16,30.16,0,0,1,427,362.94a33.65,33.65,0,0,1-.94-30.38,28.38,28.38,0,0,1,9.05-10.29,46.82,46.82,0,0,1,14-6.54,171,171,0,0,1,17-3.61q9.4-1.53,19.1-2.82t18.21-2.47l-6.33,3.66q.19-14.14-5.74-21t-20.59-6.88a31.85,31.85,0,0,0-17,4.46q-7.28,4.45-10.24,14.25l-16.72-5.05a39.07,39.07,0,0,1,14.94-22.07q11.09-8,29.19-8,14.55,0,25,5.19A30.72,30.72,0,0,1,511,287a33.49,33.49,0,0,1,2.87,10.73,117.77,117.77,0,0,1,.59,12.13V376H498.78V350.37l3.66,2.37q-6,13.06-16.92,19.65T459.2,379Zm2.67-14.75a37,37,0,0,0,16.47-3.41,30.88,30.88,0,0,0,11.24-9,29.19,29.19,0,0,0,5.54-12.22,46.39,46.39,0,0,0,1.58-11c.13-4,.2-7.16.2-9.4l6.13,2.67q-8.59,1.29-17,2.37t-15.73,2.28A117.55,117.55,0,0,0,457,329.39a40.78,40.78,0,0,0-8.16,3.61,18.75,18.75,0,0,0-6.14,5.64,14.54,14.54,0,0,0-2.33,8.37,16.76,16.76,0,0,0,2.23,8.31,16.44,16.44,0,0,0,6.93,6.43Q454.25,364.23,461.87,364.22Z"/><path class="cls-1" d="M528.27,283.67V269.12h71.55v14.55ZM599.82,376a77.56,77.56,0,0,1-18.76,1.63,42.12,42.12,0,0,1-16.52-3.76,22.71,22.71,0,0,1-10.94-10.73,31.09,31.09,0,0,1-3.41-12.82q-.26-6.48-.25-14.69V239.44h17.62v95.39q0,6.54.14,11.19a17.37,17.37,0,0,0,2,8,14.53,14.53,0,0,0,11.33,7.42,65.74,65.74,0,0,0,18.76-.59Z"/><path class="cls-2" d="M344.88,435.6V392.4h25.2v5.34H350.22v13.59h16.26v5.34H350.22V435.6Z"/><path class="cls-2" d="M383.49,436.5a12.53,12.53,0,0,1-6.07-1.34,9.1,9.1,0,0,1-3.69-3.52,10.19,10.19,0,0,1-.29-9.21,8.64,8.64,0,0,1,2.75-3.12,14.2,14.2,0,0,1,4.24-2,50.86,50.86,0,0,1,5.16-1.09q2.85-.47,5.79-.86l5.52-.75L395,415.74c0-2.86-.54-5-1.74-6.38s-3.28-2.08-6.24-2.08a9.64,9.64,0,0,0-5.14,1.35,7.3,7.3,0,0,0-3.11,4.32l-5.07-1.53a11.85,11.85,0,0,1,4.53-6.69,14.77,14.77,0,0,1,8.85-2.43,16.73,16.73,0,0,1,7.58,1.58,9.3,9.3,0,0,1,4.54,4.75,10.19,10.19,0,0,1,.87,3.26,35.94,35.94,0,0,1,.18,3.67v20h-4.74v-7.77l1.11.72a13.19,13.19,0,0,1-5.13,6A15.24,15.24,0,0,1,383.49,436.5Zm.81-4.47a11.13,11.13,0,0,0,5-1,9.14,9.14,0,0,0,3.4-2.73,8.76,8.76,0,0,0,1.68-3.7,14.06,14.06,0,0,0,.48-3.33q.06-1.83.06-2.85l1.86.81c-1.74.26-3.45.5-5.14.72s-3.28.45-4.77.69a35.8,35.8,0,0,0-4,.87,12.19,12.19,0,0,0-2.47,1.09,5.78,5.78,0,0,0-1.86,1.71,4.42,4.42,0,0,0-.71,2.54,5.07,5.07,0,0,0,.68,2.52,5,5,0,0,0,2.1,1.95A8,8,0,0,0,384.3,432Z"/><path class="cls-2" d="M421.68,436.5a15.13,15.13,0,0,1-8.35-2.21,14.2,14.2,0,0,1-5.25-6.07,20.84,20.84,0,0,1-1.85-8.82,20.5,20.5,0,0,1,1.89-8.89,14.3,14.3,0,0,1,5.31-6,16.84,16.84,0,0,1,17.15.34,12.14,12.14,0,0,1,5,6.9l-5.28,1.59a8.86,8.86,0,0,0-3.34-4.38,9.11,9.11,0,0,0-5.24-1.56,8.61,8.61,0,0,0-8.7,5.81,17.57,17.57,0,0,0-1.08,6.22,14.58,14.58,0,0,0,2.51,8.71c1.63,2.22,4,3.32,7.27,3.32A9,9,0,0,0,427,430a9.12,9.12,0,0,0,3.19-4.22l5.4,1.41a13.87,13.87,0,0,1-5.25,6.93A15.07,15.07,0,0,1,421.68,436.5Z"/><path class="cls-2" d="M441.39,397.47V392h5.34v5.52Zm0,38.13V403.2h5.34v32.4Z"/><path class="cls-2" d="M456.33,435.6V391.5h5.34v44.1Z"/><path class="cls-2" d="M471.27,397.47V392h5.34v5.52Zm0,38.13V403.2h5.34v32.4Z"/><path class="cls-2" d="M482,407.61V403.2H503.7v4.41Zm21.69,28a23.44,23.44,0,0,1-5.68.49,13,13,0,0,1-5-1.13,7,7,0,0,1-3.32-3.26,9.4,9.4,0,0,1-1-3.89c-.05-1.3-.08-2.79-.08-4.45V394.2h5.34v28.92c0,1.32,0,2.45.05,3.39a5.26,5.26,0,0,0,.61,2.43,4.42,4.42,0,0,0,3.44,2.25,19.91,19.91,0,0,0,5.68-.18Z"/><path class="cls-2" d="M510.9,397.47V392h5.34v5.52Zm0,38.13V403.2h5.34v32.4Z"/><path class="cls-2" d="M539.28,436.5a16.05,16.05,0,0,1-8.32-2.11,14.56,14.56,0,0,1-5.54-5.91,18.93,18.93,0,0,1-2-8.87,20.32,20.32,0,0,1,1.95-9.2,14.42,14.42,0,0,1,5.45-6,15.61,15.61,0,0,1,8.2-2.11,14.88,14.88,0,0,1,8.33,2.25,13.69,13.69,0,0,1,5.16,6.42A23.32,23.32,0,0,1,554,420.9h-5.4V419q-.09-6-2.43-8.92t-7-3q-5,0-7.53,3.18t-2.58,9.12q0,5.73,2.58,8.88a9,9,0,0,0,7.35,3.15,10.37,10.37,0,0,0,5.58-1.47,10,10,0,0,0,3.72-4.23l5.13,1.77a14.4,14.4,0,0,1-5.68,6.64A15.82,15.82,0,0,1,539.28,436.5Zm-12-15.6v-4.29h23.94v4.29Z"/><path class="cls-2" d="M572.91,436.47a16.52,16.52,0,0,1-9.49-2.53,10.58,10.58,0,0,1-4.55-7.1l5.46-.87a6.85,6.85,0,0,0,3,4.19,10.55,10.55,0,0,0,5.88,1.54,8.73,8.73,0,0,0,5.21-1.38,4.38,4.38,0,0,0,1.9-3.75,3.66,3.66,0,0,0-.63-2.21,5.78,5.78,0,0,0-2.59-1.6q-2-.75-5.93-1.83a36.68,36.68,0,0,1-6.75-2.36,8.55,8.55,0,0,1-3.51-2.83,7.13,7.13,0,0,1-1.05-4,8.2,8.2,0,0,1,1.56-5,10.16,10.16,0,0,1,4.37-3.31,16.64,16.64,0,0,1,6.52-1.19,17.57,17.57,0,0,1,6.6,1.17,11.62,11.62,0,0,1,4.7,3.32,9.29,9.29,0,0,1,2.11,5l-5.46,1a5.91,5.91,0,0,0-2.52-4.09,9.62,9.62,0,0,0-5.43-1.61,9,9,0,0,0-5.11,1.14,3.75,3.75,0,0,0-2,3.3,3,3,0,0,0,.74,2,7,7,0,0,0,2.73,1.57,57.37,57.37,0,0,0,5.8,1.71,32.55,32.55,0,0,1,6.77,2.36,8.54,8.54,0,0,1,3.52,3,8,8,0,0,1,1,4.24,8.83,8.83,0,0,1-3.45,7.37Q579,436.48,572.91,436.47Z"/><path class="cls-2" d="M287.69,251.53c-6,3-10.65,7.67-14.56,13.11C254.81,290.08,225.65,353,218.6,360c-7.55,7.55-23.25,8.35-25.26,11.37-.92,1.39,1.13,5.14,2.8,5.2,4.15.17,8.28-.17,21.36-.17,4,0,29.5-36.48,34.33-43,.24.5,31.92,43.19,31.92,43.19,1.47,1,4.41-10.36,4-12.08-3.23-14.57-20.1-40.17-21.45-54.37-.1-1.1,28.7-49,30.51-54.95C299.76,245.51,292.5,249.1,287.69,251.53Z"/><path class="cls-2" d="M204.77,264.08c-2.49-1.69-13-4.4-11.5-2.32.15.22,46.51,52.15,46.51,52.15l8.05-15.39S209,267,204.77,264.08Z"/></g></g></svg>