<svg width="501" height="381" viewBox="0 0 501 381" fill="none"
  xmlns="http://www.w3.org/2000/svg">
  <g clip-path="url(#clip0_3021_14400)">
    <path d="M200.475 79.0106H198.648V28.9651C198.648 25.1613 197.898 21.3948 196.442 17.8806C194.985 14.3664 192.851 11.1733 190.16 8.48368C187.469 5.79403 184.275 3.66047 180.759 2.20484C177.243 0.749211 173.475 3.22283e-06 169.669 0H63.5922C55.9066 -1.46445e-05 48.5359 3.05163 43.1014 8.48361C37.6669 13.9156 34.6138 21.283 34.6138 28.965V303.519C34.6138 307.323 35.3633 311.089 36.8196 314.603C38.2759 318.118 40.4104 321.311 43.1013 324C45.7922 326.69 48.9867 328.824 52.5026 330.279C56.0184 331.735 59.7866 332.484 63.5921 332.484H169.669C177.355 332.484 184.725 329.432 190.16 324C195.594 318.568 198.648 311.201 198.648 303.519V114.634H200.475V79.0106Z" fill="#3F3D56"/>
    <path d="M170.839 7.53564H156.992C157.629 9.09608 157.872 10.7891 157.7 12.4655C157.528 14.142 156.946 15.7504 156.005 17.1491C155.065 18.5479 153.795 19.694 152.307 20.4864C150.819 21.2789 149.159 21.6935 147.473 21.6936H86.7025C85.0165 21.6935 83.3564 21.2789 81.8684 20.4865C80.3805 19.694 79.1103 18.5479 78.1699 17.1492C77.2294 15.7504 76.6476 14.142 76.4755 12.4655C76.3035 10.7891 76.5465 9.09608 77.1833 7.53564H64.2506C61.4087 7.53564 58.5946 8.09514 55.969 9.18218C53.3435 10.2692 50.9578 11.8625 48.9483 13.8711C46.9388 15.8797 45.3447 18.2643 44.2572 20.8887C43.1696 23.513 42.6099 26.3258 42.6099 29.1664V303.318C42.6099 306.158 43.1696 308.971 44.2572 311.595C45.3447 314.22 46.9387 316.604 48.9483 318.613C50.9578 320.621 53.3435 322.215 55.969 323.302C58.5946 324.389 61.4087 324.948 64.2506 324.948H170.839C173.68 324.948 176.495 324.389 179.12 323.302C181.746 322.215 184.131 320.621 186.141 318.613C188.15 316.604 189.744 314.22 190.832 311.595C191.919 308.971 192.479 306.158 192.479 303.318V29.1664C192.479 26.3258 191.919 23.513 190.832 20.8887C189.744 18.2643 188.15 15.8797 186.141 13.8711C184.131 11.8625 181.746 10.2692 179.12 9.18218C176.495 8.09514 173.68 7.53564 170.839 7.53564Z" fill="white"/>
    <path d="M234.475 332.531H0.613809C0.451016 332.531 0.294891 332.467 0.17978 332.352C0.0646685 332.237 0 332.081 0 331.918C0 331.755 0.0646685 331.599 0.17978 331.484C0.294891 331.369 0.451016 331.304 0.613809 331.304H234.475C234.638 331.304 234.794 331.369 234.909 331.484C235.024 331.599 235.089 331.755 235.089 331.918C235.089 332.081 235.024 332.237 234.909 332.352C234.794 332.467 234.638 332.531 234.475 332.531Z" fill="#CBCBCB"/>
    <path d="M117.544 212.084C146.171 212.084 169.378 188.888 169.378 160.274C169.378 131.66 146.171 108.464 117.544 108.464C88.9172 108.464 65.7104 131.66 65.7104 160.274C65.7104 188.888 88.9172 212.084 117.544 212.084Z" fill="#FF4200"/>
    <path d="M112.408 180.038C111.242 180.04 110.107 179.663 109.174 178.963L109.116 178.92L96.9342 169.606C96.37 169.173 95.8966 168.634 95.5409 168.019C95.1852 167.404 94.9542 166.725 94.8611 166.02C94.768 165.316 94.8146 164.6 94.9983 163.913C95.182 163.227 95.4992 162.583 95.9317 162.019C96.3642 161.455 96.9036 160.982 97.5192 160.627C98.1347 160.271 98.8142 160.04 99.519 159.947C100.224 159.854 100.94 159.901 101.627 160.084C102.313 160.268 102.957 160.585 103.522 161.017L111.412 167.065L130.057 142.752C130.489 142.188 131.029 141.715 131.644 141.36C132.259 141.004 132.938 140.773 133.643 140.68C134.347 140.587 135.063 140.634 135.75 140.817C136.436 141.001 137.08 141.318 137.644 141.75L137.645 141.751L137.53 141.912L137.648 141.751C138.786 142.625 139.53 143.915 139.718 145.337C139.906 146.759 139.521 148.197 138.649 149.336L116.719 177.921C116.211 178.58 115.559 179.113 114.812 179.479C114.065 179.845 113.244 180.034 112.413 180.031L112.408 180.038Z" fill="white"/>
    <path d="M426.134 337.624C426.764 336.604 427.507 335.659 428.347 334.804C428.694 334.445 429.059 334.107 429.436 333.777C431.728 331.738 434.522 330.346 437.53 329.744C440.539 329.142 443.653 329.352 446.554 330.352C449.454 331.353 452.036 333.107 454.033 335.435C456.03 337.763 457.371 340.58 457.918 343.598C460.449 334.241 453.859 325.023 447.234 317.943C440.605 310.866 433.028 303.101 433.067 293.403C433.085 288.007 435.726 283.192 439.714 279.623C439.837 279.515 439.96 279.407 440.085 279.303C444.905 275.174 451.105 273.014 457.449 273.255C469.233 273.885 479.523 281.802 486.669 291.193C498.171 306.302 503.211 327.511 495.159 344.711C488.076 359.839 472.97 368.822 457.554 376.043C455.401 377.052 453.252 378.03 451.108 378.978C451.094 378.982 451.079 378.992 451.064 378.996C450.961 379.041 450.858 379.086 450.761 379.133C450.319 379.328 449.876 379.523 449.437 379.716L449.64 379.849L450.274 380.259C450.055 380.126 449.837 379.997 449.617 379.864C449.552 379.824 449.483 379.786 449.418 379.745C441.846 375.204 434.169 370.4 428.938 363.31C423.513 355.949 421.331 345.405 426.134 337.624Z" fill="#F1F1F1"/>
    <path d="M476.651 320.529C478.328 324.341 479.44 328.378 479.951 332.511C480.353 336.196 480.202 339.921 479.502 343.562C477.999 351.044 474.72 358.055 469.941 364.006C466.335 368.524 462.173 372.569 457.553 376.044C455.4 377.052 453.252 378.03 451.108 378.978C451.094 378.982 451.078 378.992 451.064 378.996C450.961 379.041 450.857 379.087 450.761 379.133C450.318 379.328 449.876 379.524 449.437 379.716L449.64 379.849L450.274 380.259C450.054 380.126 449.837 379.997 449.617 379.864C449.552 379.824 449.483 379.786 449.417 379.746C451.084 373.92 451.329 367.779 450.132 361.839C448.935 355.899 446.331 350.332 442.538 345.605C438.725 340.937 433.863 337.237 428.347 334.805C428.693 334.445 429.059 334.107 429.435 333.778C431.56 334.753 433.594 335.914 435.514 337.247C442.381 341.991 447.538 348.819 450.22 356.72C452.615 363.888 452.914 371.591 451.083 378.923C451.463 378.674 451.844 378.42 452.215 378.166C459.269 373.411 465.77 367.701 470.667 360.698C474.89 354.78 477.593 347.915 478.537 340.707C479.475 332.833 477.504 325.09 473.987 318.064C470.104 310.548 465.21 303.598 459.442 297.407C453.649 291.045 447.099 285.416 439.938 280.644C439.776 280.535 439.663 280.369 439.621 280.179C439.58 279.989 439.612 279.79 439.713 279.624C439.79 279.472 439.923 279.357 440.085 279.303C440.167 279.282 440.252 279.28 440.335 279.297C440.418 279.314 440.496 279.349 440.563 279.4C441.447 279.99 442.324 280.584 443.19 281.197C450.401 286.301 456.951 292.281 462.687 298.999C468.231 305.475 473.275 312.669 476.651 320.529Z" fill="white"/>
    <path d="M322.275 24.0566C328.355 24.0566 333.283 19.1304 333.283 13.0536C333.283 6.97676 328.355 2.05054 322.275 2.05054C316.196 2.05054 311.267 6.97676 311.267 13.0536C311.267 19.1304 316.196 24.0566 322.275 24.0566Z" fill="#F1F1F1"/>
    <path d="M459.154 171.303C462.861 171.303 465.866 168.3 465.866 164.595C465.866 160.89 462.861 157.886 459.154 157.886C455.448 157.886 452.443 160.89 452.443 164.595C452.443 168.3 455.448 171.303 459.154 171.303Z" fill="#F1F1F1"/>
    <path d="M262.736 189.709C266.442 189.709 269.447 186.705 269.447 183.001C269.447 179.296 266.442 176.292 262.736 176.292C259.029 176.292 256.024 179.296 256.024 183.001C256.024 186.705 259.029 189.709 262.736 189.709Z" fill="#F1F1F1"/>
    <path d="M266.525 381H500.386C500.549 381 500.705 380.935 500.82 380.82C500.935 380.705 501 380.549 501 380.386C501 380.224 500.935 380.068 500.82 379.953C500.705 379.838 500.549 379.773 500.386 379.773H266.525C266.362 379.773 266.206 379.838 266.091 379.953C265.976 380.068 265.911 380.224 265.911 380.386C265.911 380.549 265.976 380.705 266.091 380.82C266.206 380.935 266.362 381 266.525 381Z" fill="#CBCBCB"/>
    <path d="M474.578 59.2881C474.885 57.109 474.382 54.8929 473.164 53.0599C471.945 51.2268 470.097 49.9042 467.968 49.3426C465.839 48.781 463.578 49.0194 461.613 50.0127C459.649 51.006 458.117 52.6852 457.308 54.732L438.331 76.478L443.899 92.0228L462.984 66.6134C464.229 67.0122 465.547 67.1331 466.844 66.9678C468.141 66.8024 469.387 66.3548 470.492 65.6564C471.598 64.958 472.536 64.0258 473.242 62.9256C473.948 61.8253 474.404 60.5836 474.578 59.2881Z" fill="#FFB7B7"/>
    <path d="M395.915 143.902L458.909 76.7032L450.412 63.2007L371.401 129.992L395.915 143.902Z" fill="#3F3D56"/>
    <path d="M381.855 103.072C394.059 103.072 403.952 93.1837 403.952 80.9854C403.952 68.7871 394.059 58.8984 381.855 58.8984C369.651 58.8984 359.758 68.7871 359.758 80.9854C359.758 93.1837 369.651 103.072 381.855 103.072Z" fill="#2F2E41"/>
    <path d="M383.631 68.5083C388.386 63.6887 394.14 59.9695 400.488 57.6126C404.563 56.1037 408.999 55.1714 413.259 56.0283C417.519 56.8852 421.548 59.831 422.736 64.0089C423.708 67.4253 422.705 71.1036 421.196 74.3196C419.688 77.5355 417.674 80.5177 416.455 83.8537C415.21 87.2575 414.836 90.9182 415.366 94.5033C415.896 98.0884 417.313 101.484 419.489 104.383C421.666 107.282 424.531 109.591 427.827 111.102C431.123 112.613 434.744 113.277 438.361 113.034C434.175 113.595 430.317 115.562 426.226 116.608C422.134 117.655 417.305 117.584 414.265 114.654C411.048 111.554 410.983 106.514 411.139 102.051C411.37 95.4153 411.601 88.78 411.833 82.1447C411.951 78.7608 412.051 75.2685 410.83 72.1101C409.609 68.9518 406.708 66.1861 403.321 66.2149C400.753 66.2366 398.481 67.7912 396.422 69.3242C394.363 70.8573 392.184 72.4929 389.627 72.7209C387.07 72.949 384.15 71.0574 384.341 68.4984L383.631 68.5083Z" fill="#2F2E41"/>
    <path d="M297.929 229.289C295.807 229.878 293.543 229.669 291.566 228.701C289.589 227.733 288.035 226.074 287.2 224.038C286.365 222.001 286.306 219.73 287.034 217.653C287.763 215.576 289.228 213.839 291.153 212.77L310.243 191.122L326.389 194.609L303.679 216.842C304.238 218.024 304.53 219.314 304.535 220.621C304.541 221.928 304.26 223.221 303.711 224.407C303.163 225.594 302.361 226.646 301.362 227.49C300.363 228.333 299.191 228.947 297.929 229.289H297.929Z" fill="#FFB7B7"/>
    <path d="M360.734 151.79L313.155 211.486L298.652 204.83L354.576 117.804L360.734 151.79Z" fill="#3F3D56"/>
    <path d="M322.77 332.047L311.431 331.869L312.795 370.501H322.768L322.77 332.047Z" fill="#FFB7B7"/>
    <path d="M325.313 367.246L305.67 367.245H305.669C302.349 367.245 299.165 368.564 296.818 370.91C294.471 373.256 293.152 376.439 293.151 379.757V380.164L325.312 380.165L325.313 367.246Z" fill="#2F2E41"/>
    <path d="M397.849 321.802L385.462 329.75L410.24 359.546L418.633 354.16L397.849 321.802Z" fill="#FFB7B7"/>
    <path d="M419.015 350.047L402.486 360.654L402.485 360.655C399.691 362.448 397.725 365.276 397.018 368.518C396.311 371.761 396.921 375.151 398.714 377.943L398.934 378.285L425.997 360.918L419.015 350.047Z" fill="#2F2E41"/>
    <path d="M402.262 203.838C402.262 203.838 374.739 112.467 365.894 111.233C357.049 109.998 342.798 134.677 342.798 134.677C324.32 158.242 305.267 234.572 305.267 234.572C305.267 234.572 337.03 236.559 360.248 248.906C383.466 261.254 410.867 248.281 410.867 248.281L402.262 203.838Z" fill="#3F3D56"/>
    <path opacity="0.1" d="M402.262 203.838C402.262 203.838 374.739 112.467 365.894 111.232C357.049 109.998 346.417 134.928 346.417 134.928C337.21 172.966 305.267 234.572 305.267 234.572C305.267 234.572 337.03 236.559 360.248 248.906C383.466 261.254 410.867 248.281 410.867 248.281L402.262 203.838Z" fill="black"/>
    <path d="M379.682 176.501V222.414L385.087 288.922L412.095 339.232L399.205 348.435L362.377 300.579L347.81 253.062L324.934 358.251L307.748 357.024L319.684 211.182L342.334 170.131L379.682 176.501Z" fill="#2F2E41"/>
    <path d="M351.932 132.092C343.338 140.681 351.318 149.884 351.318 149.884L341.497 171.971L380.167 182.401L393.681 122.044L384.474 112.227C366.059 111.614 366.049 111.232 366.049 111.232C362.823 114.388 351.932 132.092 351.932 132.092Z" fill="#FF4200"/>
    <path d="M395.238 115.791C393.482 114.495 391.486 113.56 389.366 113.041C387.245 112.522 385.043 112.428 382.886 112.765C380.73 113.103 378.661 113.865 376.801 115.007C374.941 116.149 373.326 117.648 372.05 119.418C362.329 132.948 353.34 154.795 365.725 182.042C385.612 225.793 402.918 248.189 409.953 248.187C410.26 248.189 410.566 248.141 410.857 248.045C415.188 246.576 421.449 239.252 422.583 232.797C422.989 230.487 422.892 227.269 420.128 225.059C412.188 218.712 397.934 198.947 393.487 172.932C391.03 158.557 395.795 145.463 400.226 137.01C402.097 133.512 402.644 129.457 401.768 125.589C400.891 121.721 398.649 118.298 395.452 115.948V115.948L395.238 115.791Z" fill="#3F3D56"/>
    <path d="M382.992 100.903C390.874 96.5956 393.771 86.7169 389.462 78.8379C385.153 70.959 375.27 68.0633 367.387 72.3704C359.505 76.6774 356.608 86.5561 360.917 94.4351C365.226 102.314 375.109 105.21 382.992 100.903Z" fill="#FFB7B7"/>
    <path d="M352.313 85.4072H375.801L376.042 82.0366L377.246 85.4072H380.863L381.34 78.7268L383.727 85.4072H390.725V85.0762C390.72 80.4254 388.869 75.9666 385.579 72.6779C382.289 69.3893 377.828 67.5394 373.175 67.5342H369.864C365.211 67.5394 360.75 69.3893 357.46 72.6779C354.169 75.9665 352.319 80.4254 352.313 85.0762V85.4072Z" fill="#2F2E41"/>
    <path d="M387.177 97.5228L397.2 94.2719V69.9421H378.268L378.736 70.4099C385.258 76.92 392.511 100.017 387.177 97.5228Z" fill="#2F2E41"/>
  </g>
  <defs>
    <clipPath id="clip0_3021_14400">
      <rect width="501" height="381" fill="white"/>
    </clipPath>
  </defs>
</svg>
