<svg width="1550" height="155" viewBox="0 0 1550 155" fill="none" xmlns="http://www.w3.org/2000/svg">
<path d="M723.534 45.023C737.564 14.7934 778.771 34.2955 764.886 64.214" stroke="#2B99FF" stroke-width="10"/>
<path d="M1041.98 100.827C1074.71 107.151 1065.72 151.845 1033.33 145.587" stroke="#FF6262" stroke-width="10"/>
<path d="M237.23 107.483C219.445 135.667 181.074 111.048 198.676 83.1541" stroke="#FF6262" stroke-width="10"/>
<path d="M1278.68 140.797C1253.38 119.105 1283.32 84.7187 1308.36 106.187" stroke="#FFC42B" stroke-width="10"/>
<path d="M1522.68 102.499C1539.59 131.215 1500.14 154.055 1483.4 125.635" stroke="#2BFF99" stroke-width="10"/>
<path d="M1165.17 40.6401C1182.09 69.3561 1142.63 92.1966 1125.89 63.7768" stroke="#FF6262" stroke-width="10"/>
<path d="M463.39 109.446C480.303 138.162 440.849 161.002 424.109 132.583" stroke="#FF6262" stroke-width="10"/>
<path d="M94.5392 10.7824C111.452 39.4984 71.9978 62.339 55.2583 33.9191" stroke="#FFC42B" stroke-width="10"/>
<path d="M21.5915 139.529C-7.34578 122.997 15.5655 83.5839 44.205 99.9448" stroke="#2B99FF" stroke-width="10"/>
<path d="M529.97 61.4451C501.033 44.9133 523.944 5.49979 552.583 21.8607" stroke="#FF6262" stroke-width="10"/>
<path d="M1527.39 52.4344C1498.45 35.9026 1521.36 -3.51096 1550 12.85" stroke="#FF6262" stroke-width="10"/>
<path d="M1339.71 61.7211C1366.06 41.3113 1393.71 77.5598 1367.63 97.7598" stroke="#2B99FF" stroke-width="10"/>
<path d="M903.477 58.6316C929.823 38.2219 957.471 74.4703 931.396 94.6703" stroke="#FFD335" stroke-width="10"/>
<path d="M612.318 95.2716C638.664 74.8619 666.312 111.11 640.238 131.31" stroke="#2BFF99" stroke-width="10"/>
<path d="M283.137 38.2394C309.483 17.8297 337.131 54.0781 311.057 74.2781" stroke="#2BFF99" stroke-width="10"/>
</svg>
