<svg width="793" height="191" viewBox="0 0 793 191" fill="none" xmlns="http://www.w3.org/2000/svg">
<path d="M755.319 114.725L748.77 151.618L741.438 154.612L738.723 121.502L719.073 129.526L717.456 143.018L711.957 145.263L708.887 127.269L698.485 112.269L703.984 110.024L714.586 118.526L734.236 110.503L712.996 84.9574L720.328 81.9635L750.828 103.727L770.797 95.5735C772.255 94.978 773.891 94.9862 775.343 95.5964C776.795 96.2066 777.946 97.3687 778.541 98.8271C779.137 100.286 779.129 101.921 778.519 103.373C777.908 104.826 776.746 105.976 775.288 106.572L755.319 114.725Z" fill="#FF4200"/>
<mask id="mask0_1961_10095" style="mask-type:alpha" maskUnits="userSpaceOnUse" x="0" y="0" width="706" height="191">
<rect width="706" height="191" fill="#C4C4C4"/>
</mask>
<g mask="url(#mask0_1961_10095)">
<path d="M-7 170C-7 170 113 24 247 24C381 24 523 174 697 127" stroke="#FF4200" stroke-width="5" stroke-linecap="square"/>
</g>
</svg>
